<svg width="64" height="64" viewBox="0 0 64 64" fill="none" xmlns="http://www.w3.org/2000/svg">
<path fill-rule="evenodd" clip-rule="evenodd" d="M58 8C61.3137 8 64 10.6863 64 14V50C64 53.3137 61.3137 56 58 56H6C2.68629 56 0 53.3137 0 50V14C0 10.6863 2.68629 8 6 8H58ZM61.3 18.926L36.151 43.0227C33.8303 45.2463 30.1697 45.2462 27.849 43.0227L2.7 18.926V50C2.7 51.8225 4.17746 53.3 6 53.3H58C59.8225 53.3 61.3 51.8225 61.3 50V18.926ZM57.7686 10.7C60.7427 10.7 62.1992 14.3252 60.0517 16.3828L34.2831 41.0731C33.0067 42.2961 30.9933 42.2961 29.7169 41.0731L3.9483 16.3828C1.80086 14.3252 3.25726 10.7 6.23138 10.7H57.7686Z" fill="#5D78FF"/>
</svg>
